# xmcd
#
# Track frame offsets:
#	150
#	15379
#	33831
#	49123
#	67128
#	82687
#	99663
#	115083
#	134327
#	149006
#	163547
#	182538
#	200636
#	214691
#	231571
#	247566
#	263053
#	279740
#
# Disc length: 3869 seconds
#
# Revision: 4
# Processed by: cddbd v1.5.1PL0 Copyright (c) Steve Scherf et al.
# Submitted via: audiograbber 1.83.01
#
DISCID=fa0f1b12
DTITLE=2003-05 Country Radio - 2003-05 Country Radio
DYEAR=2003
DGENRE=Country
TTITLE0=Toby Keith feat. Willie Nelson - Beer For My Horses
TTITLE1=Shania Twain - Forever and For Always
TTITLE2=Joe Nichols - She Only Drinks When She Drinks
TTITLE3=Brooks and Dunn - Red Dirt Road
TTITLE4=Blake Shelton - Heavy Liftin' (AV)
TTITLE5=Clay Walker - Few Questions, A
TTITLE6=Rushlow - I Can't Be Your Friend
TTITLE7=Warren Brothers, The - Hey, Mr. President
TTITLE8=George Strait - Tell Me Something Bad About Tulsa
TTITLE9=Aaron Lines - Love Changes Everything
TTITLE10=Charlee Tennison - Easy Lovin' You
TTITLE11=Lee Greenwood - Rocks That You Can't Move
TTITLE12=Rachel Proctor - Days Like This
TTITLE13=Dusty Drake - One Last Time
TTITLE14=Deana Carter - I'm Just a Girl (AV)
TTITLE15=Tammy Cochran - What Kind of Woman Would I Be
TTITLE16=Billy Currington - Walk a Little Straighter
TTITLE17=Kacey Jones - Never Wear Panties to a Party
EXTD=
EXTT0=
EXTT1=
EXTT2=
EXTT3=
EXTT4=
EXTT5=
EXTT6=
EXTT7=
EXTT8=
EXTT9=
EXTT10=
EXTT11=
EXTT12=
EXTT13=
EXTT14=
EXTT15=
EXTT16=
EXTT17=
PLAYORDER=
